<svg width="83" height="114" viewBox="0 0 83 114" fill="none" xmlns="http://www.w3.org/2000/svg">
<path d="M5.24 94.22L4.6 97.84H9.3L8.92 100H4.22L3.56 103.78H8.86L8.46 106H0.34L2.82 92.02H10.92L10.54 94.22H5.24ZM11.2445 100.44C11.4445 99.3333 11.8512 98.3533 12.4645 97.5C13.0779 96.6333 13.8179 95.96 14.6845 95.48C15.5645 95 16.4779 94.76 17.4245 94.76C18.2112 94.76 18.8845 94.9133 19.4445 95.22C20.0045 95.5133 20.4179 95.8933 20.6845 96.36L20.9445 94.92H23.7645L20.8845 111.28H18.0645L19.2445 104.48C18.7912 104.96 18.2245 105.36 17.5445 105.68C16.8779 106 16.1445 106.16 15.3445 106.16C14.5312 106.16 13.8045 105.973 13.1645 105.6C12.5245 105.227 12.0245 104.7 11.6645 104.02C11.3045 103.34 11.1245 102.553 11.1245 101.66C11.1245 101.26 11.1645 100.853 11.2445 100.44ZM19.9645 100.46C20.0045 100.193 20.0245 99.9467 20.0245 99.72C20.0245 98.92 19.7912 98.3 19.3245 97.86C18.8712 97.42 18.3045 97.2 17.6245 97.2C17.1312 97.2 16.6379 97.3267 16.1445 97.58C15.6512 97.8333 15.2179 98.2067 14.8445 98.7C14.4845 99.18 14.2445 99.76 14.1245 100.44C14.0845 100.693 14.0645 100.94 14.0645 101.18C14.0645 101.967 14.2979 102.587 14.7645 103.04C15.2312 103.493 15.7979 103.72 16.4645 103.72C16.9712 103.72 17.4645 103.593 17.9445 103.34C18.4379 103.087 18.8645 102.713 19.2245 102.22C19.5979 101.727 19.8445 101.14 19.9645 100.46ZM36.9592 94.92L34.9992 106H32.1992L32.4392 104.6C32.0126 105.08 31.4859 105.46 30.8592 105.74C30.2326 106.007 29.5726 106.14 28.8792 106.14C27.7326 106.14 26.8259 105.833 26.1592 105.22C25.4926 104.593 25.1592 103.707 25.1592 102.56C25.1592 102.133 25.1926 101.753 25.2592 101.42L26.3992 94.92H29.1992L28.1192 101.02C28.0792 101.26 28.0592 101.493 28.0592 101.72C28.0592 102.373 28.2392 102.88 28.5992 103.24C28.9592 103.587 29.4659 103.76 30.1192 103.76C30.8792 103.76 31.5259 103.527 32.0592 103.06C32.5926 102.58 32.9326 101.9 33.0792 101.02L34.1592 94.92H36.9592ZM38.0419 100.42C38.2419 99.3 38.6352 98.3067 39.2219 97.44C39.8219 96.5733 40.5485 95.9067 41.4019 95.44C42.2552 94.9733 43.1552 94.74 44.1019 94.74C44.9285 94.74 45.6219 94.9067 46.1819 95.24C46.7552 95.5733 47.1752 95.9933 47.4419 96.5L47.7219 94.92H50.5419L48.5819 106H45.7619L46.0619 104.38C45.6219 104.9 45.0485 105.333 44.3419 105.68C43.6485 106.013 42.8885 106.18 42.0619 106.18C41.2485 106.18 40.5285 106 39.9019 105.64C39.2752 105.267 38.7885 104.747 38.4419 104.08C38.0952 103.4 37.9219 102.613 37.9219 101.72C37.9219 101.307 37.9619 100.873 38.0419 100.42ZM46.7419 100.46C46.7952 100.113 46.8219 99.86 46.8219 99.7C46.8219 98.9133 46.5885 98.3 46.1219 97.86C45.6685 97.42 45.0952 97.2 44.4019 97.2C43.8819 97.2 43.3752 97.3267 42.8819 97.58C42.4019 97.8333 41.9819 98.2067 41.6219 98.7C41.2619 99.18 41.0219 99.7533 40.9019 100.42C40.8619 100.673 40.8419 100.913 40.8419 101.14C40.8419 101.94 41.0685 102.573 41.5219 103.04C41.9752 103.493 42.5485 103.72 43.2419 103.72C43.7619 103.72 44.2685 103.593 44.7619 103.34C45.2552 103.073 45.6752 102.693 46.0219 102.2C46.3819 101.707 46.6219 101.127 46.7419 100.46ZM56.7566 91.2L54.1366 106H51.3166L53.9366 91.2H56.7566ZM60.503 93.6C60.063 93.6 59.7096 93.4733 59.443 93.22C59.1763 92.9667 59.043 92.6467 59.043 92.26C59.043 91.7267 59.243 91.2733 59.643 90.9C60.0563 90.5133 60.5363 90.32 61.083 90.32C61.5096 90.32 61.8563 90.4467 62.123 90.7C62.3896 90.9533 62.523 91.2733 62.523 91.66C62.523 92.1933 62.323 92.6533 61.923 93.04C61.523 93.4133 61.0496 93.6 60.503 93.6ZM61.663 94.92L59.703 106H56.883L58.843 94.92H61.663ZM66.3294 102.58C66.316 102.66 66.3094 102.767 66.3094 102.9C66.3094 103.167 66.3827 103.36 66.5294 103.48C66.6894 103.587 66.9494 103.64 67.3094 103.64H68.6294L68.2094 106H66.4294C64.4294 106 63.4294 105.167 63.4294 103.5C63.4294 103.18 63.456 102.867 63.5094 102.56L64.4494 97.22H63.1294L63.5294 94.92H64.8694L65.3494 92.18H68.1694L67.6894 94.92H70.1494L69.7494 97.22H67.2694L66.3294 102.58ZM74.0233 94.92L75.5033 102.66L79.8033 94.92H82.7833L73.0433 111.24H70.0633L73.4233 105.72L70.8833 94.92H74.0233Z" fill="black"/>
<path d="M49.1726 38.6254H48.1719C48.1719 44.5825 53.009 49.3481 58.8945 49.3481C64.7801 49.3481 69.6172 44.511 69.6172 38.6254H68.7594H68.6164L61.4203 14.7497H61.6348V11.6758H42.9773L43.025 4.24146H42.9297H42.8105H39.4508H39.3316H39.2601L39.3078 11.6758H20.6027V14.7497H20.8172L13.6449 38.6254H13.5019H12.6203C12.6203 44.5586 17.4574 49.3481 23.343 49.3481C29.2285 49.3481 34.0656 44.5586 34.0656 38.6254H33.0648H32.8265L25.6543 14.7497L39.2363 14.845V52.0883L39.2125 52.0168V52.1598H23.2953V58.6172H58.9183V52.136H43.0012V51.993L42.9773 52.0645V14.845L56.5594 14.7497L49.3633 38.6254H49.1726ZM30.4676 38.6254H16.2183L23.2238 15.0118L23.2953 14.9879L30.4676 38.6254ZM58.9183 14.9641L58.9898 14.9879L65.9953 38.6016H51.7461L58.9183 14.9641Z" fill="black"/>
</svg>
