<svg width="110" height="108" viewBox="0 0 110 108" fill="none" xmlns="http://www.w3.org/2000/svg">
<path d="M5.62 86.04L3.16 100H0.34L2.82 86.04H5.62ZM14.0264 88.76C15.1731 88.76 16.0731 89.0733 16.7264 89.7C17.3931 90.3133 17.7264 91.1933 17.7264 92.34C17.7264 92.7667 17.6931 93.1533 17.6264 93.5L16.4664 100H13.6864L14.7664 93.88C14.8064 93.64 14.8264 93.4067 14.8264 93.18C14.8264 92.5133 14.6464 92.0067 14.2864 91.66C13.9397 91.3133 13.4397 91.14 12.7864 91.14C12.0397 91.14 11.3997 91.3667 10.8664 91.82C10.3464 92.26 9.99974 92.9 9.82641 93.74L8.72641 100H5.90641L7.86641 88.92H10.6864L10.4464 90.28C10.8997 89.8133 11.4397 89.4467 12.0664 89.18C12.6931 88.9 13.3464 88.76 14.0264 88.76ZM27.2491 88.76C28.3957 88.76 29.2957 89.0733 29.9491 89.7C30.6157 90.3133 30.9491 91.1933 30.9491 92.34C30.9491 92.7667 30.9157 93.1533 30.8491 93.5L29.6891 100H26.9091L27.9891 93.88C28.0291 93.64 28.0491 93.4067 28.0491 93.18C28.0491 92.5133 27.8691 92.0067 27.5091 91.66C27.1624 91.3133 26.6624 91.14 26.0091 91.14C25.2624 91.14 24.6224 91.3667 24.0891 91.82C23.5691 92.26 23.2224 92.9 23.0491 93.74L21.9491 100H19.1291L21.0891 88.92H23.9091L23.6691 90.28C24.1224 89.8133 24.6624 89.4467 25.2891 89.18C25.9157 88.9 26.5691 88.76 27.2491 88.76ZM37.3117 100.18C36.3651 100.18 35.5251 99.9867 34.7917 99.6C34.0717 99.2133 33.5117 98.6667 33.1117 97.96C32.7117 97.2533 32.5117 96.44 32.5117 95.52C32.5117 94.2667 32.8051 93.1267 33.3917 92.1C33.9917 91.06 34.8051 90.24 35.8317 89.64C36.8717 89.04 38.0251 88.74 39.2917 88.74C40.2384 88.74 41.0784 88.94 41.8117 89.34C42.5584 89.7267 43.1317 90.2733 43.5317 90.98C43.9451 91.6867 44.1517 92.5 44.1517 93.42C44.1517 94.6867 43.8517 95.8333 43.2517 96.86C42.6517 97.8867 41.8251 98.7 40.7717 99.3C39.7317 99.8867 38.5784 100.18 37.3117 100.18ZM37.6917 97.78C38.3584 97.78 38.9651 97.5867 39.5117 97.2C40.0584 96.8133 40.4851 96.3 40.7917 95.66C41.0984 95.02 41.2517 94.3467 41.2517 93.64C41.2517 92.84 41.0251 92.2267 40.5717 91.8C40.1317 91.36 39.5717 91.14 38.8917 91.14C38.2117 91.14 37.6051 91.3333 37.0717 91.72C36.5517 92.1067 36.1451 92.6267 35.8517 93.28C35.5584 93.92 35.4117 94.6 35.4117 95.32C35.4117 96.1067 35.6184 96.7133 36.0317 97.14C36.4584 97.5667 37.0117 97.78 37.6917 97.78ZM50.1856 97.42L54.4856 88.92H57.5056L51.4456 100H48.0056L45.8856 88.92H48.8856L50.1856 97.42ZM57.3583 94.42C57.5583 93.3 57.9516 92.3067 58.5383 91.44C59.1383 90.5733 59.8649 89.9067 60.7183 89.44C61.5716 88.9733 62.4716 88.74 63.4183 88.74C64.2449 88.74 64.9383 88.9067 65.4983 89.24C66.0716 89.5733 66.4916 89.9933 66.7583 90.5L67.0383 88.92H69.8583L67.8983 100H65.0783L65.3783 98.38C64.9383 98.9 64.3649 99.3333 63.6583 99.68C62.9649 100.013 62.2049 100.18 61.3783 100.18C60.5649 100.18 59.8449 100 59.2183 99.64C58.5916 99.2667 58.1049 98.7467 57.7583 98.08C57.4116 97.4 57.2383 96.6133 57.2383 95.72C57.2383 95.3067 57.2783 94.8733 57.3583 94.42ZM66.0583 94.46C66.1116 94.1133 66.1383 93.86 66.1383 93.7C66.1383 92.9133 65.9049 92.3 65.4383 91.86C64.9849 91.42 64.4116 91.2 63.7183 91.2C63.1983 91.2 62.6916 91.3267 62.1983 91.58C61.7183 91.8333 61.2983 92.2067 60.9383 92.7C60.5783 93.18 60.3383 93.7533 60.2183 94.42C60.1783 94.6733 60.1583 94.9133 60.1583 95.14C60.1583 95.94 60.3849 96.5733 60.8383 97.04C61.2916 97.4933 61.8649 97.72 62.5583 97.72C63.0783 97.72 63.5849 97.5933 64.0783 97.34C64.5716 97.0733 64.9916 96.6933 65.3383 96.2C65.6983 95.7067 65.9383 95.1267 66.0583 94.46ZM74.513 96.58C74.4996 96.66 74.493 96.7667 74.493 96.9C74.493 97.1667 74.5663 97.36 74.713 97.48C74.873 97.5867 75.133 97.64 75.493 97.64H76.813L76.393 100H74.613C72.613 100 71.613 99.1667 71.613 97.5C71.613 97.18 71.6396 96.8667 71.693 96.56L72.633 91.22H71.313L71.713 88.92H73.053L73.533 86.18H76.353L75.873 88.92H78.333L77.933 91.22H75.453L74.513 96.58ZM82.0069 87.6C81.5669 87.6 81.2135 87.4733 80.9469 87.22C80.6802 86.9667 80.5469 86.6467 80.5469 86.26C80.5469 85.7267 80.7469 85.2733 81.1469 84.9C81.5602 84.5133 82.0402 84.32 82.5869 84.32C83.0135 84.32 83.3602 84.4467 83.6269 84.7C83.8935 84.9533 84.0269 85.2733 84.0269 85.66C84.0269 86.1933 83.8269 86.6533 83.4269 87.04C83.0269 87.4133 82.5535 87.6 82.0069 87.6ZM83.1669 88.92L81.2069 100H78.3869L80.3469 88.92H83.1669ZM88.9133 100.18C87.9666 100.18 87.1266 99.9867 86.3933 99.6C85.6733 99.2133 85.1133 98.6667 84.7133 97.96C84.3133 97.2533 84.1133 96.44 84.1133 95.52C84.1133 94.2667 84.4066 93.1267 84.9933 92.1C85.5933 91.06 86.4066 90.24 87.4333 89.64C88.4733 89.04 89.6266 88.74 90.8933 88.74C91.8399 88.74 92.6799 88.94 93.4133 89.34C94.1599 89.7267 94.7333 90.2733 95.1333 90.98C95.5466 91.6867 95.7533 92.5 95.7533 93.42C95.7533 94.6867 95.4533 95.8333 94.8533 96.86C94.2533 97.8867 93.4266 98.7 92.3733 99.3C91.3333 99.8867 90.1799 100.18 88.9133 100.18ZM89.2933 97.78C89.9599 97.78 90.5666 97.5867 91.1133 97.2C91.6599 96.8133 92.0866 96.3 92.3933 95.66C92.6999 95.02 92.8533 94.3467 92.8533 93.64C92.8533 92.84 92.6266 92.2267 92.1733 91.8C91.7333 91.36 91.1733 91.14 90.4933 91.14C89.8133 91.14 89.2066 91.3333 88.6733 91.72C88.1533 92.1067 87.7466 92.6267 87.4533 93.28C87.1599 93.92 87.0133 94.6 87.0133 95.32C87.0133 96.1067 87.2199 96.7133 87.6333 97.14C88.0599 97.5667 88.6133 97.78 89.2933 97.78ZM104.827 88.76C105.974 88.76 106.874 89.0733 107.527 89.7C108.194 90.3133 108.527 91.1933 108.527 92.34C108.527 92.7667 108.494 93.1533 108.427 93.5L107.267 100H104.487L105.567 93.88C105.607 93.64 105.627 93.4067 105.627 93.18C105.627 92.5133 105.447 92.0067 105.087 91.66C104.741 91.3133 104.241 91.14 103.587 91.14C102.841 91.14 102.201 91.3667 101.667 91.82C101.147 92.26 100.801 92.9 100.627 93.74L99.5272 100H96.7072L98.6672 88.92H101.487L101.247 90.28C101.701 89.8133 102.241 89.4467 102.867 89.18C103.494 88.9 104.147 88.76 104.827 88.76Z" fill="black"/>
<path d="M61.6875 46.5H42.3125V50.375H61.6875V46.5Z" fill="black"/>
<path d="M57.8125 54.25H46.1875V58.125H57.8125V54.25Z" fill="black"/>
<path d="M52 3.875C46.8614 3.875 41.9333 5.91629 38.2998 9.54981C34.6663 13.1833 32.625 18.1114 32.625 23.25C32.494 26.0658 33.0334 28.8726 34.1988 31.4392C35.3643 34.0059 37.1225 36.2592 39.3287 38.0138C41.2662 39.8156 42.3125 40.8425 42.3125 42.625H46.1875C46.1875 39.06 44.0369 37.0644 41.9444 35.1462C40.1335 33.7595 38.6903 31.9499 37.7411 29.8759C36.792 27.802 36.3658 25.5269 36.5 23.25C36.5 19.1391 38.133 15.1967 41.0398 12.2898C43.9467 9.38303 47.8891 7.75 52 7.75C56.1109 7.75 60.0533 9.38303 62.9602 12.2898C65.867 15.1967 67.5 19.1391 67.5 23.25C67.632 25.5286 67.2028 27.8047 66.2502 29.8788C65.2976 31.9529 63.8507 33.7616 62.0362 35.1462C59.9631 37.0837 57.8125 39.0213 57.8125 42.625H61.6875C61.6875 40.8425 62.7144 39.8156 64.6712 37.9944C66.876 36.2428 68.6334 33.9929 69.7988 31.4295C70.9643 28.8662 71.5045 26.0628 71.375 23.25C71.375 20.7056 70.8739 18.1862 69.9002 15.8355C68.9265 13.4848 67.4993 11.3489 65.7002 9.54981C63.9011 7.75067 61.7652 6.32352 59.4145 5.34983C57.0638 4.37615 54.5444 3.875 52 3.875Z" fill="black"/>
</svg>
