<svg width="87" height="108" viewBox="0 0 87 108" fill="none" xmlns="http://www.w3.org/2000/svg">
<path d="M5.62 86.04L3.16 100H0.34L2.82 86.04H5.62ZM14.0264 88.76C15.1731 88.76 16.0731 89.0733 16.7264 89.7C17.3931 90.3133 17.7264 91.1933 17.7264 92.34C17.7264 92.7667 17.6931 93.1533 17.6264 93.5L16.4664 100H13.6864L14.7664 93.88C14.8064 93.64 14.8264 93.4067 14.8264 93.18C14.8264 92.5133 14.6464 92.0067 14.2864 91.66C13.9397 91.3133 13.4397 91.14 12.7864 91.14C12.0397 91.14 11.3997 91.3667 10.8664 91.82C10.3464 92.26 9.99974 92.9 9.82641 93.74L8.72641 100H5.90641L7.86641 88.92H10.6864L10.4464 90.28C10.8997 89.8133 11.4397 89.4467 12.0664 89.18C12.6931 88.9 13.3464 88.76 14.0264 88.76ZM23.0091 96.58C22.9957 96.66 22.9891 96.7667 22.9891 96.9C22.9891 97.1667 23.0624 97.36 23.2091 97.48C23.3691 97.5867 23.6291 97.64 23.9891 97.64H25.3091L24.8891 100H23.1091C21.1091 100 20.1091 99.1667 20.1091 97.5C20.1091 97.18 20.1357 96.8667 20.1891 96.56L21.1291 91.22H19.8091L20.2091 88.92H21.5491L22.0291 86.18H24.8491L24.3691 88.92H26.8291L26.4291 91.22H23.9491L23.0091 96.58ZM33.723 88.74C35.1363 88.74 36.2563 89.1333 37.083 89.92C37.9096 90.6933 38.323 91.74 38.323 93.06C38.323 93.4867 38.2896 93.8667 38.223 94.2C38.143 94.6 38.0563 94.9467 37.963 95.24H29.863C29.8496 95.3333 29.843 95.4667 29.843 95.64C29.843 96.3333 30.043 96.88 30.443 97.28C30.8563 97.6667 31.3963 97.86 32.063 97.86C32.623 97.86 33.103 97.74 33.503 97.5C33.9163 97.2467 34.2496 96.92 34.503 96.52H37.523C37.0296 97.5867 36.263 98.4667 35.223 99.16C34.1963 99.84 33.0296 100.18 31.723 100.18C30.3096 100.18 29.1763 99.78 28.323 98.98C27.4696 98.18 27.043 97.0933 27.043 95.72C27.043 95.32 27.083 94.9 27.163 94.46C27.363 93.3133 27.7696 92.3067 28.383 91.44C29.0096 90.5733 29.783 89.9067 30.703 89.44C31.623 88.9733 32.6296 88.74 33.723 88.74ZM35.443 93.54C35.4696 93.3267 35.483 93.1733 35.483 93.08C35.483 92.44 35.2763 91.94 34.863 91.58C34.4496 91.22 33.9096 91.04 33.243 91.04C32.5363 91.04 31.903 91.2667 31.343 91.72C30.783 92.16 30.3896 92.7667 30.163 93.54H35.443ZM45.5667 88.74C46.3934 88.74 47.0934 88.9067 47.6667 89.24C48.2534 89.56 48.6667 89.98 48.9067 90.5L49.1867 88.92H52.0067L50.0467 100.08C49.8601 101.107 49.4867 102.02 48.9267 102.82C48.3667 103.633 47.6334 104.273 46.7267 104.74C45.8201 105.22 44.7801 105.46 43.6067 105.46C42.0467 105.46 40.8267 105.093 39.9467 104.36C39.0801 103.627 38.6867 102.627 38.7667 101.36H41.5467C41.6001 101.867 41.8401 102.267 42.2667 102.56C42.7067 102.867 43.2734 103.02 43.9667 103.02C44.7934 103.02 45.4934 102.773 46.0667 102.28C46.6534 101.8 47.0401 101.067 47.2267 100.08L47.5267 98.36C47.0734 98.88 46.5001 99.3133 45.8067 99.66C45.1267 100.007 44.3801 100.18 43.5667 100.18C42.7534 100.18 42.0267 100 41.3867 99.64C40.7601 99.2667 40.2667 98.7467 39.9067 98.08C39.5601 97.4 39.3867 96.6133 39.3867 95.72C39.3867 95.3067 39.4267 94.8733 39.5067 94.42C39.7067 93.3 40.1001 92.3067 40.6867 91.44C41.2867 90.5733 42.0134 89.9067 42.8667 89.44C43.7201 88.9733 44.6201 88.74 45.5667 88.74ZM48.2067 94.46C48.2601 94.1133 48.2867 93.86 48.2867 93.7C48.2867 92.9133 48.0534 92.3 47.5867 91.86C47.1334 91.42 46.5601 91.2 45.8667 91.2C45.3467 91.2 44.8401 91.3267 44.3467 91.58C43.8667 91.8333 43.4467 92.2067 43.0867 92.7C42.7267 93.18 42.4867 93.7533 42.3667 94.42C42.3267 94.6733 42.3067 94.9133 42.3067 95.14C42.3067 95.94 42.5334 96.5733 42.9867 97.04C43.4401 97.4933 44.0134 97.72 44.7067 97.72C45.2267 97.72 45.7334 97.5933 46.2267 97.34C46.7201 97.0733 47.1401 96.6933 47.4867 96.2C47.8467 95.7067 48.0867 95.1267 48.2067 94.46ZM57.2214 90.88C57.7014 90.2133 58.2614 89.6933 58.9014 89.32C59.5414 88.9467 60.2347 88.76 60.9814 88.76L60.4614 91.7H59.7214C58.8947 91.7 58.2281 91.88 57.7214 92.24C57.2281 92.6 56.8681 93.2133 56.6414 94.08L55.6014 100H52.7814L54.7414 88.92H57.5614L57.2214 90.88ZM64.4873 87.6C64.0473 87.6 63.694 87.4733 63.4273 87.22C63.1607 86.9667 63.0273 86.6467 63.0273 86.26C63.0273 85.7267 63.2273 85.2733 63.6273 84.9C64.0407 84.5133 64.5207 84.32 65.0673 84.32C65.494 84.32 65.8407 84.4467 66.1073 84.7C66.374 84.9533 66.5073 85.2733 66.5073 85.66C66.5073 86.1933 66.3073 86.6533 65.9073 87.04C65.5073 87.4133 65.034 87.6 64.4873 87.6ZM65.6473 88.92L63.6873 100H60.8673L62.8273 88.92H65.6473ZM70.3138 96.58C70.3004 96.66 70.2938 96.7667 70.2938 96.9C70.2938 97.1667 70.3671 97.36 70.5138 97.48C70.6738 97.5867 70.9338 97.64 71.2938 97.64H72.6138L72.1938 100H70.4138C68.4138 100 67.4137 99.1667 67.4137 97.5C67.4137 97.18 67.4404 96.8667 67.4938 96.56L68.4338 91.22H67.1138L67.5138 88.92H68.8538L69.3338 86.18H72.1538L71.6738 88.92H74.1338L73.7338 91.22H71.2538L70.3138 96.58ZM78.0077 88.92L79.4877 96.66L83.7877 88.92H86.7677L77.0277 105.24H74.0477L77.4077 99.72L74.8677 88.92H78.0077Z" fill="black"/>
<path d="M59.8805 21.5008C59.9813 20.7417 60.0384 19.969 60.0384 19.1827C60.0384 9.51218 52.1705 1.64429 42.5 1.64429C32.8295 1.64429 24.9616 9.51218 24.9616 19.1827C24.9616 19.969 25.0188 20.7417 25.1196 21.5008C18.6158 24.0687 14 30.4121 14 37.8172C14 47.4878 21.8679 55.3557 31.5384 55.3557C35.6836 55.3557 39.4949 53.9069 42.5 51.4936C45.5052 53.9069 49.3164 55.3557 53.4616 55.3557C63.1321 55.3557 71 47.4878 71 37.8172C71 30.4121 66.3841 24.0687 59.8805 21.5008ZM42.5 3.83656C50.9621 3.83656 57.8461 10.7208 57.8461 19.1827C57.8461 19.7335 57.8156 20.2773 57.7586 20.8133C56.3829 20.4654 54.9439 20.2789 53.4616 20.2789C49.3165 20.2789 45.5052 21.7277 42.5 24.141C39.4949 21.7277 35.6837 20.2789 31.5384 20.2789C30.0562 20.2789 28.6172 20.4655 27.2413 20.8133C27.1844 20.2773 27.1538 19.7337 27.1538 19.1827C27.1539 10.7206 34.0379 3.83656 42.5 3.83656ZM42.5 27.0918C44.3592 28.9915 45.7316 31.369 46.4091 34.0226C45.1604 34.3518 43.8506 34.5288 42.5 34.5288C41.1495 34.5288 39.8396 34.3518 38.591 34.0226C39.2686 31.369 40.6408 28.9915 42.5 27.0918ZM36.5126 33.312C32.1523 31.4573 28.8202 27.6411 27.6296 22.9773C28.8781 22.6481 30.188 22.4711 31.5385 22.4711C35.0425 22.4711 38.2735 23.654 40.8597 25.6378C38.8125 27.7553 37.2917 30.3832 36.5126 33.312ZM44.1405 25.6378C46.7267 23.654 49.9579 22.4711 53.4616 22.4711C54.8122 22.4711 56.122 22.6481 57.3707 22.9773C56.1799 27.6411 52.8479 31.4573 48.4877 33.312C47.7084 30.3832 46.1874 27.7553 44.1405 25.6378ZM31.5384 53.1634C23.0764 53.1634 16.1923 46.2792 16.1923 37.8172C16.1923 31.4783 20.0556 26.0255 25.551 23.6879C26.9882 29.0897 30.9451 33.4713 36.081 35.4992C35.9803 36.2583 35.9231 37.031 35.9231 37.8172C35.9231 42.5452 37.8071 46.8393 40.8596 49.9965C38.2735 51.9805 35.0424 53.1634 31.5384 53.1634ZM38.1153 37.8172C38.1153 37.2664 38.146 36.7227 38.2028 36.1866C39.5786 36.5344 41.0178 36.721 42.5 36.721C43.9823 36.721 45.4214 36.5343 46.797 36.1866C46.854 36.7227 46.8845 37.2663 46.8845 37.8172C46.8845 41.9883 45.2098 45.7739 42.4999 48.5427C39.7903 45.7739 38.1153 41.9884 38.1153 37.8172ZM53.4616 53.1634C49.9579 53.1634 46.7267 51.9805 44.1405 49.9965C47.1929 46.8392 49.0769 42.5451 49.0769 37.8172C49.0769 37.031 49.0198 36.2583 48.9191 35.4992C54.055 33.4713 58.012 29.0897 59.4493 23.6879C64.9446 26.0254 68.8078 31.4783 68.8078 37.8172C68.8077 46.2793 61.9235 53.1634 53.4616 53.1634Z" fill="black"/>
</svg>
