<svg width="122" height="36" viewBox="0 0 122 36" fill="none" xmlns="http://www.w3.org/2000/svg">
<path d="M6.36 29.264C5.192 29.264 4.216 29.04 3.432 28.592C2.648 28.128 2.056 27.456 1.656 26.576C1.256 25.696 1.032 24.616 0.984 23.336L4.032 22.736C4.064 23.488 4.152 24.152 4.296 24.728C4.456 25.304 4.688 25.752 4.992 26.072C5.312 26.376 5.728 26.528 6.24 26.528C6.816 26.528 7.224 26.36 7.464 26.024C7.704 25.672 7.824 25.232 7.824 24.704C7.824 23.856 7.632 23.16 7.248 22.616C6.864 22.072 6.352 21.528 5.712 20.984L3.264 18.824C2.576 18.232 2.024 17.576 1.608 16.856C1.208 16.12 1.008 15.216 1.008 14.144C1.008 12.608 1.456 11.424 2.352 10.592C3.248 9.76 4.472 9.344 6.024 9.344C6.936 9.344 7.696 9.488 8.304 9.776C8.912 10.048 9.392 10.432 9.744 10.928C10.112 11.424 10.384 11.992 10.56 12.632C10.736 13.256 10.848 13.92 10.896 14.624L7.872 15.152C7.84 14.544 7.768 14 7.656 13.52C7.56 13.04 7.376 12.664 7.104 12.392C6.848 12.12 6.464 11.984 5.952 11.984C5.424 11.984 5.016 12.16 4.728 12.512C4.456 12.848 4.32 13.272 4.32 13.784C4.32 14.44 4.456 14.984 4.728 15.416C5 15.832 5.392 16.264 5.904 16.712L8.328 18.848C9.128 19.52 9.808 20.312 10.368 21.224C10.944 22.12 11.232 23.208 11.232 24.488C11.232 25.416 11.024 26.24 10.608 26.96C10.208 27.68 9.64 28.248 8.904 28.664C8.184 29.064 7.336 29.264 6.36 29.264ZM13.1816 29L13.5176 9.56H17.1896L19.9496 23.024L22.8296 9.56H26.3816L26.7416 29H24.1016L23.8136 15.488L21.0536 29H18.9176L16.1096 15.44L15.8456 29H13.1816ZM28.6284 29L32.5164 9.56H36.3084L40.1964 29H36.9084L36.1404 24.512H32.7564L31.9644 29H28.6284ZM33.1164 22.256H35.7564L34.4364 14.096L33.1164 22.256ZM42.1515 29V9.56H46.8075C48.1195 9.56 49.2235 9.72 50.1195 10.04C51.0315 10.344 51.7195 10.872 52.1835 11.624C52.6635 12.376 52.9035 13.4 52.9035 14.696C52.9035 15.48 52.8315 16.184 52.6875 16.808C52.5435 17.432 52.2955 17.968 51.9435 18.416C51.6075 18.848 51.1355 19.184 50.5275 19.424L53.2395 29H49.6875L47.3355 20.096H45.7035V29H42.1515ZM45.7035 17.864H46.8075C47.4955 17.864 48.0395 17.768 48.4395 17.576C48.8555 17.368 49.1515 17.048 49.3275 16.616C49.5035 16.168 49.5915 15.6 49.5915 14.912C49.5915 13.936 49.4075 13.208 49.0395 12.728C48.6875 12.232 48.0075 11.984 46.9995 11.984H45.7035V17.864ZM57.4549 29V12.176H54.3589V9.56H64.0549V12.176H61.0069V29H57.4549Z" fill="white"/>
<path d="M72.36 29.264C71.192 29.264 70.216 29.04 69.432 28.592C68.648 28.128 68.056 27.456 67.656 26.576C67.256 25.696 67.032 24.616 66.984 23.336L70.032 22.736C70.064 23.488 70.152 24.152 70.296 24.728C70.456 25.304 70.688 25.752 70.992 26.072C71.312 26.376 71.728 26.528 72.24 26.528C72.816 26.528 73.224 26.36 73.464 26.024C73.704 25.672 73.824 25.232 73.824 24.704C73.824 23.856 73.632 23.16 73.248 22.616C72.864 22.072 72.352 21.528 71.712 20.984L69.264 18.824C68.576 18.232 68.024 17.576 67.608 16.856C67.208 16.12 67.008 15.216 67.008 14.144C67.008 12.608 67.456 11.424 68.352 10.592C69.248 9.76 70.472 9.344 72.024 9.344C72.936 9.344 73.696 9.488 74.304 9.776C74.912 10.048 75.392 10.432 75.744 10.928C76.112 11.424 76.384 11.992 76.56 12.632C76.736 13.256 76.848 13.92 76.896 14.624L73.872 15.152C73.84 14.544 73.768 14 73.656 13.52C73.56 13.04 73.376 12.664 73.104 12.392C72.848 12.12 72.464 11.984 71.952 11.984C71.424 11.984 71.016 12.16 70.728 12.512C70.456 12.848 70.32 13.272 70.32 13.784C70.32 14.44 70.456 14.984 70.728 15.416C71 15.832 71.392 16.264 71.904 16.712L74.328 18.848C75.128 19.52 75.808 20.312 76.368 21.224C76.944 22.12 77.232 23.208 77.232 24.488C77.232 25.416 77.024 26.24 76.608 26.96C76.208 27.68 75.64 28.248 74.904 28.664C74.184 29.064 73.336 29.264 72.36 29.264ZM79.3714 29V9.56H82.8994V17.696H86.8594V9.56H90.4114V29H86.8594V20.216H82.8994V29H79.3714ZM98.6659 29.264C97.2899 29.264 96.1939 29.008 95.3779 28.496C94.5619 27.984 93.9779 27.248 93.6259 26.288C93.2739 25.328 93.0979 24.192 93.0979 22.88V15.608C93.0979 14.296 93.2739 13.176 93.6259 12.248C93.9779 11.304 94.5619 10.584 95.3779 10.088C96.1939 9.592 97.2899 9.344 98.6659 9.344C100.074 9.344 101.178 9.592 101.978 10.088C102.794 10.584 103.378 11.304 103.73 12.248C104.098 13.176 104.282 14.296 104.282 15.608V22.904C104.282 24.2 104.098 25.328 103.73 26.288C103.378 27.232 102.794 27.968 101.978 28.496C101.178 29.008 100.074 29.264 98.6659 29.264ZM98.6659 26.648C99.2579 26.648 99.6899 26.52 99.9619 26.264C100.25 26.008 100.442 25.656 100.538 25.208C100.634 24.76 100.682 24.272 100.682 23.744V14.792C100.682 14.248 100.634 13.76 100.538 13.328C100.442 12.896 100.25 12.56 99.9619 12.32C99.6899 12.064 99.2579 11.936 98.6659 11.936C98.1059 11.936 97.6819 12.064 97.3939 12.32C97.1059 12.56 96.9139 12.896 96.8179 13.328C96.7219 13.76 96.6739 14.248 96.6739 14.792V23.744C96.6739 24.272 96.7139 24.76 96.7939 25.208C96.8899 25.656 97.0819 26.008 97.3699 26.264C97.6579 26.52 98.0899 26.648 98.6659 26.648ZM106.909 29V9.56H112.621C113.789 9.56 114.733 9.776 115.453 10.208C116.189 10.64 116.725 11.272 117.061 12.104C117.413 12.92 117.589 13.912 117.589 15.08C117.589 16.344 117.373 17.368 116.941 18.152C116.509 18.92 115.901 19.48 115.117 19.832C114.349 20.184 113.437 20.36 112.381 20.36H110.461V29H106.909ZM110.461 17.864H111.805C112.445 17.864 112.941 17.776 113.293 17.6C113.661 17.408 113.909 17.112 114.037 16.712C114.181 16.296 114.253 15.744 114.253 15.056C114.253 14.352 114.197 13.784 114.085 13.352C113.989 12.904 113.765 12.576 113.413 12.368C113.077 12.16 112.541 12.056 111.805 12.056H110.461V17.864ZM117.308 29V25.712H120.476V29H117.308Z" fill="white"/>
</svg>
