<svg width="109" height="106" viewBox="0 0 109 106" fill="none" xmlns="http://www.w3.org/2000/svg">
<path d="M12.32 84.04L11.92 86.24H8.22L6.14 98H3.32L5.4 86.24H1.68L2.08 84.04H12.32ZM18.723 86.74C20.1363 86.74 21.2563 87.1333 22.083 87.92C22.9096 88.6933 23.323 89.74 23.323 91.06C23.323 91.4867 23.2896 91.8667 23.223 92.2C23.143 92.6 23.0563 92.9467 22.963 93.24H14.863C14.8496 93.3333 14.843 93.4667 14.843 93.64C14.843 94.3333 15.043 94.88 15.443 95.28C15.8563 95.6667 16.3963 95.86 17.063 95.86C17.623 95.86 18.103 95.74 18.503 95.5C18.9163 95.2467 19.2496 94.92 19.503 94.52H22.523C22.0296 95.5867 21.263 96.4667 20.223 97.16C19.1963 97.84 18.0296 98.18 16.723 98.18C15.3096 98.18 14.1763 97.78 13.323 96.98C12.4696 96.18 12.043 95.0933 12.043 93.72C12.043 93.32 12.083 92.9 12.163 92.46C12.363 91.3133 12.7696 90.3067 13.383 89.44C14.0096 88.5733 14.783 87.9067 15.703 87.44C16.623 86.9733 17.6296 86.74 18.723 86.74ZM20.443 91.54C20.4696 91.3267 20.483 91.1733 20.483 91.08C20.483 90.44 20.2763 89.94 19.863 89.58C19.4496 89.22 18.9096 89.04 18.243 89.04C17.5363 89.04 16.903 89.2667 16.343 89.72C15.783 90.16 15.3896 90.7667 15.163 91.54H20.443ZM24.5067 92.42C24.7067 91.3 25.1001 90.3067 25.6867 89.44C26.2867 88.5733 27.0134 87.9067 27.8667 87.44C28.7201 86.9733 29.6201 86.74 30.5667 86.74C31.3934 86.74 32.0867 86.9067 32.6467 87.24C33.2201 87.5733 33.6401 87.9933 33.9067 88.5L34.1867 86.92H37.0067L35.0467 98H32.2267L32.5267 96.38C32.0867 96.9 31.5134 97.3333 30.8067 97.68C30.1134 98.0133 29.3534 98.18 28.5267 98.18C27.7134 98.18 26.9934 98 26.3667 97.64C25.7401 97.2667 25.2534 96.7467 24.9067 96.08C24.5601 95.4 24.3867 94.6133 24.3867 93.72C24.3867 93.3067 24.4267 92.8733 24.5067 92.42ZM33.2067 92.46C33.2601 92.1133 33.2867 91.86 33.2867 91.7C33.2867 90.9133 33.0534 90.3 32.5867 89.86C32.1334 89.42 31.5601 89.2 30.8667 89.2C30.3467 89.2 29.8401 89.3267 29.3467 89.58C28.8667 89.8333 28.4467 90.2067 28.0867 90.7C27.7267 91.18 27.4867 91.7533 27.3667 92.42C27.3267 92.6733 27.3067 92.9133 27.3067 93.14C27.3067 93.94 27.5334 94.5733 27.9867 95.04C28.4401 95.4933 29.0134 95.72 29.7067 95.72C30.2267 95.72 30.7334 95.5933 31.2267 95.34C31.7201 95.0733 32.1401 94.6933 32.4867 94.2C32.8467 93.7067 33.0867 93.1267 33.2067 92.46ZM53.5414 86.76C54.7147 86.76 55.6414 87.0733 56.3214 87.7C57.0014 88.3267 57.3414 89.2133 57.3414 90.36C57.3414 90.7867 57.3081 91.1667 57.2414 91.5L56.0814 98H53.3014L54.3814 91.88C54.4214 91.64 54.4414 91.4067 54.4414 91.18C54.4414 90.54 54.2614 90.0533 53.9014 89.72C53.5547 89.3733 53.0547 89.2 52.4014 89.2C51.6281 89.2 50.9747 89.4333 50.4414 89.9C49.9081 90.3533 49.5747 91.0133 49.4414 91.88V91.86L48.3414 98H45.5614L46.6414 91.88C46.6814 91.64 46.7014 91.4133 46.7014 91.2C46.7014 90.5467 46.5214 90.0533 46.1614 89.72C45.8014 89.3733 45.2947 89.2 44.6414 89.2C43.9081 89.2 43.2747 89.42 42.7414 89.86C42.2214 90.2867 41.8814 90.9 41.7214 91.7L40.6014 98H37.7814L39.7414 86.92H42.5614L42.3214 88.24C42.7614 87.7867 43.2881 87.4267 43.9014 87.16C44.5147 86.8933 45.1614 86.76 45.8414 86.76C46.7081 86.76 47.4481 86.9467 48.0614 87.32C48.6747 87.68 49.1081 88.2 49.3614 88.88C49.8281 88.24 50.4347 87.7267 51.1814 87.34C51.9414 86.9533 52.7281 86.76 53.5414 86.76ZM76.0784 86.92L70.8784 98H67.8384L67.1984 90.3L63.7984 98H60.7584L59.4784 86.92H62.2984L62.7784 95.36L66.3984 86.92H69.3584L69.9584 95.34L73.3784 86.92H76.0784ZM80.5734 98.18C79.6268 98.18 78.7868 97.9867 78.0534 97.6C77.3334 97.2133 76.7734 96.6667 76.3734 95.96C75.9734 95.2533 75.7734 94.44 75.7734 93.52C75.7734 92.2667 76.0668 91.1267 76.6534 90.1C77.2534 89.06 78.0668 88.24 79.0934 87.64C80.1334 87.04 81.2868 86.74 82.5534 86.74C83.5001 86.74 84.3401 86.94 85.0734 87.34C85.8201 87.7267 86.3934 88.2733 86.7934 88.98C87.2068 89.6867 87.4134 90.5 87.4134 91.42C87.4134 92.6867 87.1134 93.8333 86.5134 94.86C85.9134 95.8867 85.0868 96.7 84.0334 97.3C82.9934 97.8867 81.8401 98.18 80.5734 98.18ZM80.9534 95.78C81.6201 95.78 82.2268 95.5867 82.7734 95.2C83.3201 94.8133 83.7468 94.3 84.0534 93.66C84.3601 93.02 84.5134 92.3467 84.5134 91.64C84.5134 90.84 84.2868 90.2267 83.8334 89.8C83.3934 89.36 82.8334 89.14 82.1534 89.14C81.4734 89.14 80.8668 89.3333 80.3334 89.72C79.8134 90.1067 79.4068 90.6267 79.1134 91.28C78.8201 91.92 78.6734 92.6 78.6734 93.32C78.6734 94.1067 78.8801 94.7133 79.2934 95.14C79.7201 95.5667 80.2734 95.78 80.9534 95.78ZM92.8073 88.88C93.2873 88.2133 93.8473 87.6933 94.4873 87.32C95.1273 86.9467 95.8207 86.76 96.5673 86.76L96.0473 89.7H95.3073C94.4807 89.7 93.814 89.88 93.3073 90.24C92.814 90.6 92.454 91.2133 92.2273 92.08L91.1873 98H88.3673L90.3273 86.92H93.1473L92.8073 88.88ZM102.733 92.46L106.653 98H103.033L100.113 93.3L99.2733 98H96.4533L99.0733 83.2H101.893L100.413 91.6L104.933 86.92H108.593L102.733 92.46Z" fill="black"/>
<g clip-path="url(#clip0_44_488)">
<path d="M55.0471 1.15134C54.3897 0.44966 53.4614 0.0473633 52.5 0.0473633C51.5387 0.0473633 50.6103 0.449768 49.9529 1.15134C49.2955 1.85292 48.9543 2.80554 49.017 3.76504L49.1925 6.45554C49.1925 6.45565 49.1925 6.45565 49.1925 6.45565C49.262 7.51946 49.8236 8.49249 50.6949 9.05861C51.2432 9.41493 51.8717 9.59293 52.5001 9.59293C53.1286 9.59293 53.7572 9.41482 54.3053 9.05871C55.1765 8.4926 55.7382 7.51957 55.8076 6.45565L55.9831 3.76504C56.0457 2.80565 55.7046 1.85303 55.0471 1.15134ZM53.7967 3.62249L53.6212 6.31289C53.5966 6.69048 53.4061 7.02993 53.1117 7.22125C52.74 7.46263 52.2602 7.46242 51.8887 7.22125C51.5943 7.02993 51.4039 6.69026 51.3791 6.31289L51.2036 3.62249C51.18 3.26016 51.3037 2.91458 51.552 2.64957C51.8003 2.38466 52.1369 2.23867 52.5 2.23867C52.8631 2.23867 53.1997 2.38466 53.448 2.64957C53.6966 2.91458 53.8203 3.26016 53.7967 3.62249Z" fill="black"/>
<path d="M61.1657 16.0276L60.8614 14.3471C60.4611 12.1381 58.711 10.3751 56.5064 9.9599C56.1735 9.89728 55.8333 9.86548 55.4948 9.86548H54.578C54.2875 9.86548 54.0088 9.98096 53.8033 10.1863C53.4553 10.5344 52.9925 10.7261 52.5001 10.7261C52.0076 10.7261 51.5449 10.5344 51.1968 10.1863C50.9913 9.98096 50.7127 9.86548 50.4221 9.86548H49.5053C49.167 9.86548 48.8266 9.89728 48.4937 9.9599C46.2891 10.3749 44.539 12.138 44.1387 14.3471L43.8344 16.0276C43.7765 16.347 43.8634 16.6759 44.0715 16.9251C44.2798 17.1743 44.5877 17.3185 44.9125 17.3185H60.0877C60.4125 17.3185 60.7205 17.1744 60.9285 16.9251C61.1366 16.6759 61.2235 16.3471 61.1657 16.0276ZM46.2245 15.1271L46.295 14.7376C46.5345 13.4161 47.5812 12.3614 48.8995 12.1132C49.0988 12.0756 49.3027 12.0566 49.5055 12.0566H50.0085C50.7163 12.6145 51.5849 12.9174 52.5002 12.9174C53.4153 12.9174 54.284 12.6146 54.9918 12.0566H55.4948C55.6975 12.0566 55.9015 12.0756 56.1009 12.1132C57.4193 12.3614 58.4658 13.4161 58.7053 14.7376L58.7759 15.1271H46.2245Z" fill="black"/>
<path d="M55.0471 38.7854C54.3897 38.0837 53.4614 37.6814 52.5 37.6814C51.5387 37.6814 50.6103 38.0838 49.9529 38.7854C49.2955 39.4871 48.9543 40.4397 49.017 41.3991L49.1925 44.0897C49.262 45.1536 49.8237 46.1266 50.6948 46.6926C51.2433 47.049 51.8716 47.227 52.5001 47.227C53.1285 47.227 53.7572 47.0489 54.3053 46.6926C55.1764 46.1266 55.7382 45.1535 55.8076 44.0896L55.9831 41.399C56.0457 40.4397 55.7046 39.4871 55.0471 38.7854ZM53.7967 41.2563L53.6212 43.9468C53.5966 44.3243 53.4061 44.6638 53.1116 44.8551C52.74 45.0964 52.2602 45.0964 51.8887 44.8551C51.5943 44.6638 51.4039 44.3242 51.3791 43.9468L51.2036 41.2564C51.18 40.894 51.3037 40.5484 51.552 40.2835C51.8002 40.0186 52.1369 39.8726 52.5 39.8726C52.8631 39.8726 53.1998 40.0186 53.448 40.2835C53.6966 40.5484 53.8203 40.894 53.7967 41.2563Z" fill="black"/>
<path d="M61.1656 53.6616L60.8613 51.9812C60.461 49.7721 58.7109 48.0091 56.5063 47.5939C56.1737 47.5313 55.8334 47.4995 55.4947 47.4995H54.5779C54.2874 47.4995 54.0087 47.615 53.8032 47.8204C53.0845 48.5391 51.9155 48.539 51.1968 47.8204C50.9913 47.615 50.7127 47.4995 50.4221 47.4995H49.5053C49.1672 47.4995 48.8269 47.5313 48.4937 47.5939C46.2891 48.0091 44.539 49.7721 44.1387 51.9813L43.8344 53.6617C43.7765 53.9812 43.8634 54.31 44.0715 54.5592C44.2798 54.8084 44.5877 54.9525 44.9125 54.9525H60.0877C60.4125 54.9525 60.7205 54.8084 60.9284 54.559C61.1365 54.3099 61.2234 53.9812 61.1656 53.6616ZM46.2245 52.7613L46.2949 52.3719C46.5345 51.0504 47.5811 49.9957 48.899 49.7474C49.0986 49.7098 49.3026 49.6908 49.5053 49.6908H50.0089C51.4656 50.8359 53.5349 50.8359 54.9913 49.6908H55.4949C55.6977 49.6908 55.9017 49.7098 56.101 49.7473C57.4194 49.9956 58.4659 51.0503 58.7054 52.3718L58.776 52.7613H46.2245Z" fill="black"/>
<path d="M36.2304 19.9686C35.573 19.2669 34.6446 18.8645 33.6832 18.8645C32.7218 18.8645 31.7932 19.2669 31.1359 19.9686C30.4786 20.6702 30.1375 21.6228 30.2001 22.5821L30.3757 25.2726C30.4451 26.3364 31.0067 27.3095 31.878 27.8756C32.4264 28.2319 33.0549 28.41 33.6833 28.41C34.3117 28.41 34.9404 28.2319 35.4884 27.8757C36.3597 27.3096 36.9214 26.3365 36.9906 25.2728L37.1662 22.5822C37.2287 21.6229 36.8876 20.6701 36.2304 19.9686ZM34.9798 22.4394L34.8043 25.13C34.7798 25.5075 34.5893 25.8469 34.2948 26.0382C33.9232 26.2796 33.4433 26.2796 33.0719 26.0382C32.7773 25.8468 32.587 25.5073 32.5623 25.13L32.3867 22.4394C32.3631 22.0771 32.4868 21.7315 32.7351 21.4666C32.9833 21.2016 33.3201 21.0556 33.6832 21.0556C34.0463 21.0556 34.383 21.2017 34.6312 21.4666C34.8795 21.7315 35.0034 22.0771 34.9798 22.4394Z" fill="black"/>
<path d="M42.3486 34.8444L42.0443 33.164C41.644 30.955 39.8939 29.192 37.6893 28.7768C37.3566 28.7142 37.0163 28.6824 36.6775 28.6824H35.7608C35.4703 28.6824 35.1918 28.7979 34.9862 29.0032C34.2675 29.7219 33.0984 29.722 32.3798 29.0032C32.1743 28.7979 31.8956 28.6824 31.6051 28.6824H30.6882C30.35 28.6824 30.0096 28.7142 29.6767 28.7768C27.4721 29.192 25.722 30.955 25.3217 33.164L25.0174 34.8444C24.9595 35.1639 25.0464 35.4927 25.2545 35.742C25.4627 35.9912 25.7707 36.1352 26.0955 36.1352H41.2707C41.5955 36.1352 41.9034 35.9912 42.1114 35.742C42.3196 35.4927 42.4065 35.1641 42.3486 34.8444ZM27.4076 33.9441L27.4781 33.5546C27.7177 32.2332 28.7643 31.1784 30.0826 30.9302C30.2819 30.8926 30.4858 30.8736 30.6885 30.8736H31.1917C31.8995 31.4315 32.7682 31.7342 33.6834 31.7342C34.5985 31.7342 35.4672 31.4315 36.175 30.8736H36.678C36.8807 30.8736 37.0846 30.8926 37.2839 30.9302C38.6023 31.1784 39.6489 32.2332 39.8884 33.5546L39.959 33.9441H27.4076Z" fill="black"/>
<path d="M73.864 19.9685C73.2066 19.2668 72.2783 18.8645 71.3169 18.8645C70.3555 18.8645 69.4271 19.2669 68.7697 19.9686C68.1124 20.6702 67.7714 21.6229 67.834 22.5822L68.0095 25.2727C68.0789 26.3365 68.6404 27.3096 69.5117 27.8757C70.0602 28.2321 70.6885 28.4101 71.3171 28.4101C71.9454 28.4101 72.5741 28.232 73.1222 27.8757C73.9935 27.3096 74.5552 26.3365 74.6245 25.2727L74.8 22.5821C74.8626 21.6227 74.5215 20.6701 73.864 19.9685ZM72.6136 22.4394L72.4381 25.13C72.4136 25.5074 72.2231 25.8469 71.9285 26.0382C71.5573 26.2794 71.0773 26.2796 70.7056 26.0382C70.4112 25.8469 70.2208 25.5074 70.1961 25.13L70.0206 22.4394C69.9969 22.0771 70.1208 21.7315 70.3689 21.4666C70.6171 21.2017 70.9539 21.0557 71.3169 21.0557C71.6801 21.0557 72.0168 21.2017 72.265 21.4666C72.5135 21.7315 72.6372 22.0771 72.6136 22.4394Z" fill="black"/>
<path d="M79.9825 34.8444L79.6782 33.164C79.2779 30.955 77.5278 29.192 75.3232 28.7768C74.9903 28.7142 74.6501 28.6824 74.3116 28.6824H73.3947C73.1042 28.6824 72.8257 28.7979 72.6201 29.0032C71.9014 29.7219 70.7324 29.722 70.0137 29.0032C69.8082 28.7979 69.5295 28.6824 69.239 28.6824H68.3222C67.9837 28.6824 67.6434 28.7142 67.3107 28.7768C65.106 29.192 63.3559 30.955 62.9556 33.164L62.6513 34.8444C62.5934 35.1639 62.6803 35.4927 62.8884 35.742C63.0967 35.9912 63.4046 36.1352 63.7294 36.1352H78.9046C79.2294 36.1352 79.5374 35.9912 79.7453 35.742C79.9535 35.4927 80.0403 35.1641 79.9825 34.8444ZM65.0414 33.9441L65.112 33.5546C65.3515 32.2332 66.3981 31.1784 67.7166 30.9302C67.9158 30.8926 68.1196 30.8736 68.3224 30.8736H68.8254C69.5332 31.4315 70.4019 31.7342 71.3171 31.7342C72.2322 31.7342 73.1009 31.4315 73.8087 30.8736H74.3118C74.5144 30.8736 74.7184 30.8926 74.9178 30.9302C76.2362 31.1784 77.2827 32.2332 77.5222 33.5546L77.5928 33.9441H65.0414Z" fill="black"/>
<path d="M46.8093 7.1144C46.6154 6.5413 45.9937 6.23386 45.4203 6.42765C41.0807 7.8958 37.2153 10.7652 34.5362 14.5069C34.1841 14.9989 34.2973 15.6834 34.7893 16.0356C34.9826 16.174 35.2055 16.2405 35.4262 16.2405C35.7676 16.2405 36.1042 16.0813 36.3179 15.7825C38.7321 12.4108 42.2141 9.82564 46.1226 8.50327C46.6959 8.30937 47.0034 7.6875 46.8093 7.1144Z" fill="black"/>
<path d="M70.4972 14.5069C68.6111 11.8726 66.1224 9.64545 63.2995 8.06613C62.7718 7.77082 62.1039 7.95924 61.8085 8.48733C61.513 9.01542 61.7017 9.68294 62.2297 9.97846C64.773 11.4016 67.0158 13.4087 68.7156 15.7825C68.9294 16.0813 69.2659 16.2404 69.6074 16.2404C69.828 16.2404 70.0509 16.1739 70.2441 16.0355C70.7363 15.6832 70.8494 14.9987 70.4972 14.5069Z" fill="black"/>
<path d="M60.1784 6.62739C59.9921 6.55875 59.802 6.49139 59.6131 6.42759C59.0398 6.23337 58.4182 6.54113 58.224 7.11423C58.0302 7.68733 58.3377 8.3092 58.9108 8.5032C59.0807 8.56067 59.252 8.62126 59.4197 8.68324C59.5449 8.72943 59.673 8.75135 59.799 8.75135C60.2447 8.75135 60.6636 8.47731 60.8268 8.03473C61.0364 7.46701 60.7461 6.83697 60.1784 6.62739Z" fill="black"/>
<path d="M46.1227 45.3543C42.2142 44.0321 38.7322 41.4469 36.318 38.075C35.9657 37.5831 35.2813 37.4698 34.7894 37.822C34.2973 38.1744 34.1841 38.8588 34.5363 39.3508C37.2154 43.0926 41.0809 45.9619 45.4203 47.43C45.5368 47.4693 45.6552 47.4881 45.7716 47.4881C46.2285 47.4881 46.6548 47.2 46.8094 46.7433C47.0033 46.1702 46.6959 45.5483 46.1227 45.3543Z" fill="black"/>
<path d="M70.2442 37.8223C69.7522 37.47 69.0677 37.5835 68.7156 38.0752C66.3014 41.4471 62.8194 44.0322 58.9109 45.3544C58.3377 45.5483 58.0303 46.1702 58.2242 46.7434C58.3786 47.2001 58.8051 47.4881 59.262 47.4881C59.3783 47.4881 59.4968 47.4694 59.6131 47.4301C64.0155 45.9407 67.7792 43.147 70.4973 39.3509C70.8494 38.8589 70.7363 38.1745 70.2442 37.8223Z" fill="black"/>
</g>
<defs>
<clipPath id="clip0_44_488">
<rect width="55" height="55" fill="white" transform="translate(25)"/>
</clipPath>
</defs>
</svg>
